<svg xmlns="http://www.w3.org/2000/svg" width="752pt" height="752pt" version="1.1" viewBox="200 150 752 752">
 <g fill="#28a645">
 <path d="m229.62 150.69-63.145 62.426h63.145z"/>
  <path d="m383.18 228.91v-75.344c0-4.3047-2.8711-7.1758-7.1758-7.1758h-132.03v73.906c0 4.3047-2.8711 7.1758-7.1758 7.1758h-73.906v148.53c0 3.5859 3.5859 7.1758 7.1758 7.1758h81.801v-132.75c0-11.48 9.3281-21.527 21.527-21.527zm-94.715-60.992h57.402c4.3047 0 7.1758 2.8711 7.1758 7.1758 0 4.3047-2.8711 7.1758-7.1758 7.1758h-57.402c-4.3047 0-7.1758-2.8711-7.1758-7.1758 0-4.3086 2.8711-7.1758 7.1758-7.1758zm0 32.289h57.402c4.3047 0 7.1758 2.8711 7.1758 7.1758 0 4.3047-2.8711 7.1758-7.1758 7.1758h-57.402c-4.3047 0-7.1758-2.8711-7.1758-7.1758 0-4.3047 2.8711-7.1758 7.1758-7.1758zm-67.449 154.27h-28.703c-4.3047 0-7.1758-2.8711-7.1758-7.1758 0-4.3047 2.8711-7.1758 7.1758-7.1758h28.703c4.3047 0 7.1758 2.8711 7.1758 7.1758 0 4.3047-2.8711 7.1758-7.1758 7.1758zm0-35.879h-28.703c-4.3047 0-7.1758-2.8711-7.1758-7.1758s2.8711-7.1758 7.1758-7.1758h28.703c4.3047 0 7.1758 2.8711 7.1758 7.1758s-2.8711 7.1758-7.1758 7.1758zm0-32.289h-28.703c-4.3047 0-7.1758-2.8711-7.1758-7.1758 0-4.3047 2.8711-7.1758 7.1758-7.1758h28.703c4.3047 0 7.1758 2.8711 7.1758 7.1758 0 4.3047-2.8711 7.1758-7.1758 7.1758z"/>
  <path d="m419.05 247.56v62.43h63.145z"/>
  <path d="m486.5 501.57v-177.23h-74.625c-3.5859 0-7.1758-3.5859-7.1758-7.1758v-73.91h-132.03c-3.5859 0-7.1758 2.8711-7.1758 7.1758v251.14c0 3.5859 3.5859 7.1758 7.1758 7.1758h206.65c3.5859 0 7.1758-2.8672 7.1758-7.1758zm-175.08-204.5h57.402c4.3047 0 7.1758 2.8711 7.1758 7.1758 0 4.3047-2.8711 7.1758-7.1758 7.1758h-57.402c-4.3047 0-7.1758-2.8711-7.1758-7.1758 0-4.3047 3.5898-7.1758 7.1758-7.1758zm0 39.465h57.402c4.3047 0 7.1758 2.8711 7.1758 7.1758 0 4.3047-2.8711 7.1758-7.1758 7.1758h-57.402c-4.3047 0-7.1758-2.8711-7.1758-7.1758 0-4.3047 3.5898-7.1758 7.1758-7.1758zm114.81 132.75h-114.81c-4.3047 0-7.1758-2.8711-7.1758-7.1758 0-4.3047 2.8711-7.1758 7.1758-7.1758h114.81c4.3047 0 7.1758 2.8711 7.1758 7.1758 0 4.3086-2.8711 7.1758-7.1758 7.1758zm0-39.465h-114.81c-4.3047 0-7.1758-2.8711-7.1758-7.1758s2.8711-7.1758 7.1758-7.1758h114.81c4.3047 0 7.1758 2.8711 7.1758 7.1758s-2.8711 7.1758-7.1758 7.1758zm0-39.465h-114.81c-4.3047 0-7.1758-2.8711-7.1758-7.1758 0-4.3047 2.8711-7.1758 7.1758-7.1758h114.81c4.3047 0 7.1758 2.8711 7.1758 7.1758 0 4.3047-2.8711 7.1758-7.1758 7.1758z"/>
 </g>
</svg>
