<svg xmlns="http://www.w3.org/2000/svg" width="752pt" height="752pt" version="1.1" viewBox="200 100 752 752">
 <path d="m249.67 198.41h198.83c2.0664 0 3.9336 0.84766 5.2773 2.2148l53.785 53.785c1.4453 1.4453 2.168 3.3398 2.168 5.2305v286.56c0 4.0859-3.3125 7.3984-7.3984 7.3984h-252.66c-4.0859 0-7.3984-3.3125-7.3984-7.3984v-340.39c0-4.0859 3.3125-7.3984 7.3984-7.3984zm252.66 63.082c0.49609 0 0.95703-0.19141 1.3086-0.54297 0.72266-0.72266 0.72266-1.8906 0-2.6172l-53.785-53.785c-0.36719-0.36719-0.83203-0.58984-1.3516-0.58984-1.0234 0-1.8516 0.82812-1.8516 1.8516v53.828c0 1.0234 0.82812 1.8516 1.8516 1.8516h53.828zm-217.13 70.926c-4.0859 0-7.3984 3.3125-7.3984 7.3984 0 4.0859 3.3125 7.3984 7.3984 7.3984h181.6c4.0859 0 7.3984-3.3125 7.3984-7.3984 0-4.0859-3.3125-7.3984-7.3984-7.3984zm0 45.617c-4.0859 0-7.3984 3.3125-7.3984 7.3984 0 4.0859 3.3125 7.3984 7.3984 7.3984h181.6c4.0859 0 7.3984-3.3125 7.3984-7.3984 0-4.0859-3.3125-7.3984-7.3984-7.3984zm0 45.617c-4.0859 0-7.3984 3.3125-7.3984 7.3984 0 4.0859 3.3125 7.3984 7.3984 7.3984h181.6c4.0859 0 7.3984-3.3125 7.3984-7.3984 0-4.0859-3.3125-7.3984-7.3984-7.3984zm0 45.617c-4.0859 0-7.3984 3.3125-7.3984 7.3984 0 4.0859 3.3125 7.3984 7.3984 7.3984h181.6c4.0859 0 7.3984-3.3125 7.3984-7.3984 0-4.0859-3.3125-7.3984-7.3984-7.3984z" fill="#28a745"/>
</svg>
